G04 #@! TF.GenerationSoftware,KiCad,Pcbnew,(5.1.6-0)*
G04 #@! TF.CreationDate,2022-05-24T21:55:46+02:00*
G04 #@! TF.ProjectId,ESP32EvoPilotRemote,45535033-3245-4766-9f50-696c6f745265,rev?*
G04 #@! TF.SameCoordinates,Original*
G04 #@! TF.FileFunction,Copper,L1,Top*
G04 #@! TF.FilePolarity,Positive*
%FSLAX46Y46*%
G04 Gerber Fmt 4.6, Leading zero omitted, Abs format (unit mm)*
G04 Created by KiCad (PCBNEW (5.1.6-0)) date 2022-05-24 21:55:46*
%MOMM*%
%LPD*%
G01*
G04 APERTURE LIST*
G04 #@! TA.AperFunction,ComponentPad*
%ADD10C,2.540000*%
G04 #@! TD*
G04 #@! TA.AperFunction,ComponentPad*
%ADD11R,2.540000X2.540000*%
G04 #@! TD*
G04 #@! TA.AperFunction,ComponentPad*
%ADD12O,1.200000X2.000000*%
G04 #@! TD*
G04 #@! TA.AperFunction,ComponentPad*
%ADD13C,3.000000*%
G04 #@! TD*
G04 #@! TA.AperFunction,ComponentPad*
%ADD14R,3.000000X3.000000*%
G04 #@! TD*
G04 #@! TA.AperFunction,ComponentPad*
%ADD15R,1.100000X1.800000*%
G04 #@! TD*
G04 #@! TA.AperFunction,ComponentPad*
%ADD16O,1.700000X1.700000*%
G04 #@! TD*
G04 #@! TA.AperFunction,ComponentPad*
%ADD17R,1.700000X1.700000*%
G04 #@! TD*
G04 #@! TA.AperFunction,ComponentPad*
%ADD18O,2.200000X2.200000*%
G04 #@! TD*
G04 #@! TA.AperFunction,ComponentPad*
%ADD19R,2.200000X2.200000*%
G04 #@! TD*
G04 #@! TA.AperFunction,ComponentPad*
%ADD20C,2.000000*%
G04 #@! TD*
G04 #@! TA.AperFunction,ComponentPad*
%ADD21O,1.600000X1.600000*%
G04 #@! TD*
G04 #@! TA.AperFunction,ComponentPad*
%ADD22C,1.600000*%
G04 #@! TD*
G04 #@! TA.AperFunction,ViaPad*
%ADD23C,0.800000*%
G04 #@! TD*
G04 #@! TA.AperFunction,Conductor*
%ADD24C,0.250000*%
G04 #@! TD*
G04 APERTURE END LIST*
D10*
X118110000Y-91440000D03*
X118110000Y-73660000D03*
X77470000Y-91440000D03*
D11*
X77470000Y-73660000D03*
D12*
X68580000Y-118110000D03*
X68580000Y-143510000D03*
X71120000Y-118110000D03*
X71120000Y-143510000D03*
X73660000Y-118110000D03*
X73660000Y-143510000D03*
X76200000Y-118110000D03*
X76200000Y-143510000D03*
X78740000Y-118110000D03*
X78740000Y-143510000D03*
X81280000Y-118110000D03*
X81280000Y-143510000D03*
X83820000Y-118110000D03*
X83820000Y-143510000D03*
X86360000Y-118110000D03*
X86360000Y-143510000D03*
X88900000Y-118110000D03*
X88900000Y-143510000D03*
X91440000Y-118110000D03*
X91440000Y-143510000D03*
X93980000Y-118110000D03*
X93980000Y-143510000D03*
X96520000Y-118110000D03*
X96520000Y-143510000D03*
X99060000Y-118110000D03*
X99060000Y-143510000D03*
X101600000Y-118110000D03*
X101600000Y-143510000D03*
X104140000Y-118110000D03*
X104140000Y-143510000D03*
X106680000Y-118110000D03*
X106680000Y-143510000D03*
X109220000Y-118110000D03*
X109220000Y-143510000D03*
X111760000Y-118110000D03*
X111760000Y-143510000D03*
X114300000Y-118110000D03*
X114300000Y-143510000D03*
D13*
X128905000Y-116840000D03*
D14*
X128905000Y-111760000D03*
D15*
X125730000Y-124860000D03*
G04 #@! TA.AperFunction,ComponentPad*
G36*
G01*
X127720000Y-125485000D02*
X127720000Y-124235000D01*
G75*
G02*
X127995000Y-123960000I275000J0D01*
G01*
X128545000Y-123960000D01*
G75*
G02*
X128820000Y-124235000I0J-275000D01*
G01*
X128820000Y-125485000D01*
G75*
G02*
X128545000Y-125760000I-275000J0D01*
G01*
X127995000Y-125760000D01*
G75*
G02*
X127720000Y-125485000I0J275000D01*
G01*
G37*
G04 #@! TD.AperFunction*
G04 #@! TA.AperFunction,ComponentPad*
G36*
G01*
X126450000Y-123415000D02*
X126450000Y-122165000D01*
G75*
G02*
X126725000Y-121890000I275000J0D01*
G01*
X127275000Y-121890000D01*
G75*
G02*
X127550000Y-122165000I0J-275000D01*
G01*
X127550000Y-123415000D01*
G75*
G02*
X127275000Y-123690000I-275000J0D01*
G01*
X126725000Y-123690000D01*
G75*
G02*
X126450000Y-123415000I0J275000D01*
G01*
G37*
G04 #@! TD.AperFunction*
D16*
X126365000Y-135890000D03*
X126365000Y-138430000D03*
D17*
X126365000Y-140970000D03*
D16*
X106680000Y-113030000D03*
X104140000Y-113030000D03*
X101600000Y-113030000D03*
D17*
X99060000Y-113030000D03*
X66040000Y-113030000D03*
D16*
X68580000Y-113030000D03*
X71120000Y-113030000D03*
X73660000Y-113030000D03*
X105410000Y-105410000D03*
X105410000Y-102870000D03*
X105410000Y-100330000D03*
D17*
X105410000Y-97790000D03*
D18*
X130810000Y-129540000D03*
D19*
X120650000Y-129540000D03*
D20*
X66040000Y-105410000D03*
D21*
X121285000Y-119380000D03*
D22*
X121285000Y-109220000D03*
D23*
X89535000Y-125095000D03*
X92710000Y-107950000D03*
X86360000Y-107950000D03*
X97790000Y-102870000D03*
X101600000Y-106680000D03*
X104140000Y-109220000D03*
X115570000Y-115570000D03*
X112395000Y-114300000D03*
X115570000Y-109220000D03*
X91440000Y-137795000D03*
X110490000Y-111760000D03*
X100330000Y-140970000D03*
D24*
X76200000Y-143510000D02*
X76200000Y-138430000D01*
X76200000Y-138430000D02*
X89535000Y-125095000D01*
X125730000Y-110490000D02*
X124460000Y-109220000D01*
X125730000Y-120920000D02*
X125730000Y-110490000D01*
X127000000Y-122190000D02*
X125730000Y-120920000D01*
X124460000Y-109220000D02*
X121285000Y-109220000D01*
X121285000Y-117475000D02*
X121285000Y-119380000D01*
X118110000Y-114300000D02*
X121285000Y-117475000D01*
X113030000Y-115570000D02*
X114300000Y-114300000D01*
X114300000Y-114300000D02*
X118110000Y-114300000D01*
X113030000Y-115570000D02*
X113030000Y-133350000D01*
X113030000Y-133350000D02*
X106680000Y-139700000D01*
X106680000Y-139700000D02*
X80645000Y-139700000D01*
X78740000Y-141605000D02*
X78740000Y-143510000D01*
X80645000Y-139700000D02*
X78740000Y-141605000D01*
X86360000Y-116860000D02*
X86360000Y-118110000D01*
X67730000Y-143510000D02*
X68580000Y-143510000D01*
X92710000Y-107950000D02*
X86360000Y-107950000D01*
X68580000Y-119360000D02*
X70505000Y-121285000D01*
X68580000Y-118110000D02*
X68580000Y-119360000D01*
X70505000Y-121285000D02*
X81915000Y-121285000D01*
X82550000Y-120650000D02*
X82550000Y-107950000D01*
X81915000Y-121285000D02*
X82550000Y-120650000D01*
X86360000Y-107950000D02*
X82550000Y-107950000D01*
X130810000Y-111760000D02*
X130810000Y-129540000D01*
X128270000Y-111760000D02*
X130810000Y-111760000D01*
X130810000Y-111760000D02*
X128905000Y-111760000D01*
X101600000Y-106680000D02*
X104140000Y-109220000D01*
X119300000Y-129540000D02*
X120650000Y-129540000D01*
X118110000Y-128350000D02*
X119300000Y-129540000D01*
X118110000Y-118110000D02*
X118110000Y-128350000D01*
X115570000Y-115570000D02*
X118110000Y-118110000D01*
X97790000Y-102870000D02*
X82550000Y-102870000D01*
X82550000Y-102870000D02*
X82550000Y-80010000D01*
X82550000Y-80010000D02*
X77470000Y-80010000D01*
X77470000Y-80010000D02*
X77470000Y-73660000D01*
X99060000Y-113030000D02*
X99060000Y-114300000D01*
X99060000Y-114300000D02*
X99695000Y-114935000D01*
X111760000Y-114935000D02*
X112395000Y-114300000D01*
X99695000Y-114935000D02*
X111760000Y-114935000D01*
X82550000Y-105410000D02*
X82550000Y-105410000D01*
X106680000Y-113030000D02*
X111760000Y-113030000D01*
X111760000Y-113030000D02*
X115570000Y-109220000D01*
X128270000Y-117475000D02*
X128905000Y-116840000D01*
X71120000Y-113030000D02*
X71120000Y-114935000D01*
X71120000Y-114935000D02*
X71755000Y-115570000D01*
X71755000Y-115570000D02*
X80645000Y-115570000D01*
X81280000Y-116205000D02*
X81280000Y-118110000D01*
X80645000Y-115570000D02*
X81280000Y-116205000D01*
X71120000Y-105410000D02*
X71120000Y-113030000D01*
X102870000Y-100330000D02*
X97790000Y-105410000D01*
X105410000Y-100330000D02*
X102870000Y-100330000D01*
X77470000Y-91440000D02*
X77470000Y-105410000D01*
X77470000Y-105410000D02*
X71120000Y-105410000D01*
X97790000Y-105410000D02*
X77470000Y-105410000D01*
X105410000Y-105410000D02*
X105410000Y-110490000D01*
X105410000Y-110490000D02*
X92710000Y-110490000D01*
X92710000Y-110490000D02*
X91440000Y-111760000D01*
X91440000Y-137795000D02*
X91440000Y-123190000D01*
X91440000Y-111760000D02*
X92075000Y-111125000D01*
X91440000Y-123190000D02*
X90170000Y-121920000D01*
X90170000Y-121920000D02*
X90170000Y-113030000D01*
X90170000Y-113030000D02*
X91440000Y-111760000D01*
X110490000Y-105410000D02*
X110490000Y-111760000D01*
X100330000Y-140970000D02*
X84455000Y-140970000D01*
X83820000Y-141605000D02*
X83820000Y-143510000D01*
X84455000Y-140970000D02*
X83820000Y-141605000D01*
X107950000Y-102870000D02*
X105410000Y-102870000D01*
X107950000Y-102870000D02*
X109220000Y-104140000D01*
X109220000Y-104140000D02*
X110490000Y-105410000D01*
X125730000Y-124460000D02*
X125730000Y-133350000D01*
X126365000Y-133985000D02*
X126365000Y-135890000D01*
X125730000Y-133350000D02*
X126365000Y-133985000D01*
M02*
