M48
; DRILL file {KiCad (5.1.6-0)} date Tuesday, May 24, 2022 at 09:55:39 PM
; FORMAT={-:-/ absolute / inch / decimal}
; #@! TF.CreationDate,2022-05-24T21:55:39+02:00
; #@! TF.GenerationSoftware,Kicad,Pcbnew,(5.1.6-0)
; #@! TF.FileFunction,Plated,1,2,PTH
FMAT,2
INCH
T1C0.0157
T2C0.0295
T3C0.0315
T4C0.0394
T5C0.0433
T6C0.0598
%
G90
G05
T1
X3.4Y-4.25
X3.525Y-4.925
X3.6Y-5.425
X3.65Y-4.25
X3.85Y-4.05
X3.95Y-5.55
X4.0Y-4.2
X4.1Y-4.3
X4.35Y-4.4
X4.425Y-4.5
X4.55Y-4.3
X4.55Y-4.55
T2
X4.95Y-4.9
X5.0Y-4.85
X5.05Y-4.9
T3
X2.7Y-4.65
X2.7Y-5.65
X2.8Y-4.65
X2.8Y-5.65
X2.9Y-4.65
X2.9Y-5.65
X3.0Y-4.65
X3.0Y-5.65
X3.1Y-4.65
X3.1Y-5.65
X3.2Y-4.65
X3.2Y-5.65
X3.3Y-4.65
X3.3Y-5.65
X3.4Y-4.65
X3.4Y-5.65
X3.5Y-4.65
X3.5Y-5.65
X3.6Y-4.65
X3.6Y-5.65
X3.7Y-4.65
X3.7Y-5.65
X3.8Y-4.65
X3.8Y-5.65
X3.9Y-4.65
X3.9Y-5.65
X4.0Y-4.65
X4.0Y-5.65
X4.1Y-4.65
X4.1Y-5.65
X4.2Y-4.65
X4.2Y-5.65
X4.3Y-4.65
X4.3Y-5.65
X4.4Y-4.65
X4.4Y-5.65
X4.5Y-4.65
X4.5Y-5.65
X4.775Y-4.3
X4.775Y-4.7
T4
X2.6Y-4.45
X2.7Y-4.45
X2.8Y-4.45
X2.9Y-4.45
X4.15Y-3.85
X4.15Y-3.95
X4.15Y-4.05
X4.15Y-4.15
X4.975Y-5.35
X4.975Y-5.45
X4.975Y-5.55
X2.6Y-4.15
X3.05Y-2.9
X3.05Y-3.6
X4.65Y-2.9
X4.65Y-3.6
X3.9Y-4.45
X4.0Y-4.45
X4.1Y-4.45
X4.2Y-4.45
T5
X4.75Y-5.1
X5.15Y-5.1
T6
X5.075Y-4.4
X5.075Y-4.6
T0
M30
